<?xml version="1.0" encoding="UTF-8"?>
<!-- Generated by Pixelmator Pro 3.3 -->
<svg width="639" height="512" viewBox="0 0 639 512" xmlns="http://www.w3.org/2000/svg" xmlns:xlink="http://www.w3.org/1999/xlink">
    <path id="scale-balanced-solid" fill="#fcd34d" stroke="none" d="M 384 32 L 512 32 C 529.700012 32 544 46.299988 544 64 C 544 81.700012 529.700012 96 512 96 L 398.399994 96 C 393.200012 121.799988 375.5 143.100006 352 153.299988 L 352 448 L 512 448 C 529.700012 448 544 462.299988 544 480 C 544 497.700012 529.700012 512 512 512 L 320 512 L 128 512 C 110.300003 512 96 497.700012 96 480 C 96 462.299988 110.300003 448 128 448 L 288 448 L 288 153.299988 C 264.5 143 246.800003 121.700012 241.600006 96 L 128 96 C 110.300003 96 96 81.700012 96 64 C 96 46.299988 110.300003 32 128 32 L 256 32 C 270.600006 12.600006 293.799988 0 320 0 C 346.200012 0 369.399994 12.600006 384 32 Z M 439.600006 320 L 584.400024 320 L 512 195.799988 L 439.600006 320 Z M 512 416 C 449.100006 416 396.799988 382 386 337.100006 C 383.399994 326.100006 387 314.799988 392.700012 305 L 487.899994 141.799988 C 492.899994 133.200012 502.100006 128 512 128 C 521.900024 128 531.099976 133.299988 536.099976 141.799988 L 631.299988 305 C 637 314.799988 640.599976 326.100006 638 337.100006 C 627.200012 382 574.900024 416 512 416 Z M 126.800003 195.799988 L 54.400002 320 L 199.300003 320 L 126.800003 195.799988 Z M 0.9 337.100006 C -1.7 326.100006 1.9 314.799988 7.6 305 L 102.800003 141.799988 C 107.800003 133.200012 117 128 126.900002 128 C 136.800003 128 146 133.299988 151 141.799988 L 246.199997 305 C 251.899994 314.799988 255.5 326.100006 252.899994 337.100006 C 242 382 189.699997 416 126.800003 416 C 63.900002 416 11.7 382 0.9 337.100006 Z"/>
</svg>
